<svg xmlns="http://www.w3.org/2000/svg" width="204" height="195" viewBox="0 0 204 195">
  <path fill="#ffe402" fill-rule="evenodd" d="M102.061,2c12.658-.736,31.5,53.247,34.907,56.116s61.3,2.554,64.82,16.248-41.182,45.858-42.864,51.166,17.654,58.451,4.772,65.922S110.13,166.26,102.061,166.34s-50.136,34.52-61.635,25.112,6.466-58.081,4.772-66.922S-2.428,90.824,2.334,74.364s59.944-12.095,63.82-15.248S89.4,2.736,102.061,2ZM102,19V152s46.354,27.191,51,23-8.817-51.54-8-56,42.825-34.615,41-41-52.55-5.551-58-9S102,19,102,19Z"/>
</svg>
